<svg width="12" height="15" viewBox="0 0 12 15" fill="none" xmlns="http://www.w3.org/2000/svg">
<path d="M1.15844 14.64C0.891771 14.64 0.671771 14.5733 0.498438 14.44C0.325104 14.2933 0.225104 14.1133 0.198438 13.9C0.171771 13.6733 0.245104 13.4467 0.418438 13.22L5.13844 6.88V7.72L0.678438 1.72C0.505104 1.48 0.425104 1.24667 0.438438 1.02C0.465104 0.793333 0.565104 0.613333 0.738438 0.479999C0.911771 0.333333 1.1251 0.26 1.37844 0.26C1.59177 0.26 1.77844 0.313333 1.93844 0.419999C2.11177 0.513333 2.2851 0.68 2.45844 0.92L6.33844 6.24H5.69844L9.53844 0.92C9.71177 0.68 9.87844 0.513333 10.0384 0.419999C10.2118 0.313333 10.4118 0.26 10.6384 0.26C10.9051 0.26 11.1251 0.333333 11.2984 0.479999C11.4718 0.613333 11.5651 0.793333 11.5784 1.02C11.6051 1.23333 11.5251 1.46667 11.3384 1.72L6.87844 7.72V6.88L11.5784 13.22C11.7518 13.4467 11.8251 13.6733 11.7984 13.9C11.7851 14.1133 11.6918 14.2933 11.5184 14.44C11.3451 14.5733 11.1184 14.64 10.8384 14.64C10.6384 14.64 10.4518 14.5867 10.2784 14.48C10.1051 14.3733 9.9251 14.2067 9.73844 13.98L5.61844 8.34H6.37844L2.27844 13.98C2.1051 14.2067 1.9251 14.3733 1.73844 14.48C1.5651 14.5867 1.37177 14.64 1.15844 14.64Z" fill="#ADB5BD"/>
</svg>
